<svg xmlns="http://www.w3.org/2000/svg" viewBox="0 0 100 100" fill="none">
  <rect width="100" height="100" rx="20" fill="#EFF6FF"/>
  <!-- Baseball Bat -->
  <path d="M22 78L72 26C74 24 78 24 80 26C82 28 82 32 80 34L30 84C28 86 24 86 22 84C20 82 20 80 22 78Z" fill="#D97706"/>
  <rect x="20" y="76" width="10" height="4" rx="2" fill="#B45309" transform="rotate(-45 20 76)"/>
  <!-- Baseball Ball -->
  <circle cx="36" cy="36" r="18" fill="#FFFFFF" stroke="#E2E8F0" stroke-width="2"/>
  <path d="M26 26C30 32 30 40 26 46" stroke="#EF4444" stroke-width="2.5" stroke-linecap="round" stroke-dasharray="2 2"/>
  <path d="M46 26C42 32 42 40 46 46" stroke="#EF4444" stroke-width="2.5" stroke-linecap="round" stroke-dasharray="2 2"/>
</svg>
