<svg xmlns="http://www.w3.org/2000/svg" viewBox="0 0 100 100" fill="none">
  <rect width="100" height="100" rx="20" fill="#E0F2FE"/>
  <!-- Water Waves -->
  <path d="M14 62C20 58 28 58 34 62C40 66 48 66 54 62C60 58 68 58 74 62C80 66 86 66 90 62" stroke="#0284C7" stroke-width="5" stroke-linecap="round"/>
  <path d="M10 74C16 70 24 70 30 74C36 78 44 78 50 74C56 70 64 70 70 74C76 78 84 78 90 74" stroke="#38BDF8" stroke-width="4" stroke-linecap="round"/>
  <!-- Swim Goggles -->
  <rect x="28" y="34" width="20" height="16" rx="8" fill="#0284C7" stroke="#0369A1" stroke-width="2"/>
  <rect x="52" y="34" width="20" height="16" rx="8" fill="#0284C7" stroke="#0369A1" stroke-width="2"/>
  <rect x="32" y="38" width="12" height="8" rx="4" fill="#BAE6FD"/>
  <rect x="56" y="38" width="12" height="8" rx="4" fill="#BAE6FD"/>
  <path d="M48 42H52" stroke="#0369A1" stroke-width="3"/>
  <path d="M18 42H28M72 42H82" stroke="#0369A1" stroke-width="3" stroke-linecap="round"/>
</svg>
